<?xml version="1.0" encoding="UTF-8"?><svg id="Logo" xmlns="http://www.w3.org/2000/svg" viewBox="0 0 1206.15 314.92"><defs><style>.cls-1{fill:#2e2727;}</style></defs><g><g><path class="cls-1" d="M536.61,161.62c.01-.08,0-.13-.03-.14-1.97-.52-4.02-1.38-5.24-3.11-.12-.17-.22-.33-.3-.49,.07-.02,.13-.04,.2-.06,2.3-.63,4.68-.38,6.93,.33,.74,.23,2.83-3.82,3.13-4.36,.19-.34,2.61-4.76,2.21-4.89-2.85-.9-5.86-.98-8.61,.28-3.42,1.57-5.39,5.14-7.14,8.28-1.41,2.51-3.39,5.65-2.48,8.67,.25,.84,.7,1.54,1.27,2.13-.47,.77-.92,1.55-1.35,2.34-.49,.91-1.1,1.88-1.38,2.89-.07,.23-.4,.91,.09,.67,5.18-2.52,10.56-4.65,15.97-6.62,1.32-.48,2.48-3.21,3.13-4.36,.62-1.09,1.24-2.2,1.75-3.35,.07-.15,.53-1.57,.45-1.54-2.88,1.05-5.76,2.15-8.6,3.33Z"/><path class="cls-1" d="M326.35,141.76c.9-.3,2.65-3.39,3.01-3.93,2.63-4.02,5.27-8.32,6.97-12.84,2.09-5.55,2.68-11.6,3.06-17.47,.51-7.86,.5-15.74,.37-23.61-.26-15.84-1.29-31.67-1.34-47.52,0-3.11,.02-6.23,.24-9.34,.08-1.11,.19-2.22,.36-3.31,.07-.46,.17-.92,.27-1.38v-.03s.03-.07,.05-.11c.29-.74,.69-1.63-.17-1.34-.9,.3-2.65,3.39-3.01,3.93-2.64,4.04-5.23,8.33-6.97,12.84-1.6,4.15-1.5,8.94-1.55,13.31-.08,7.14,.19,14.28,.43,21.42,.57,16.38,1.46,32.83,.72,49.22-.17,3.77-.44,7.55-.96,11.29-.21,1.51-.46,3.01-.79,4.5-.15,.67-.34,1.33-.5,2l-.02,.06c-.12,.32-.22,.65-.34,.97-.28,.74-.69,1.63,.17,1.34Z"/><path class="cls-1" d="M569.59,36.39c0-3.11,.02-6.23,.24-9.34,.08-1.11,.19-2.22,.36-3.31,.07-.46,.17-.92,.27-1.38v-.03s.03-.07,.05-.11c.29-.74,.69-1.63-.17-1.34-.9,.3-2.65,3.39-3.01,3.93-2.64,4.04-5.23,8.33-6.97,12.84-1.6,4.15-1.5,8.94-1.55,13.31-.08,7.14,.19,14.28,.43,21.42,.57,16.38,1.46,32.83,.72,49.22-.17,3.77-.44,7.55-.96,11.29-.21,1.51-.46,3.01-.79,4.5-.15,.67-.34,1.33-.5,2l-.02,.06c-.12,.32-.22,.65-.34,.97-.28,.74-.69,1.63,.17,1.34,.9-.3,2.65-3.39,3.01-3.93,2.63-4.02,5.27-8.32,6.97-12.84,2.09-5.55,2.68-11.6,3.06-17.47,.51-7.86,.5-15.74,.37-23.61-.26-15.84-1.29-31.67-1.34-47.52Z"/><path class="cls-1" d="M269.57,96.53c.16-.18,.24-.28,0,0h0Z"/><path class="cls-1" d="M271.78,94.25c1.98-3.42,3.89-6.93,5.45-10.57-.08,.18,1.38-2.81,.91-3.09-.47-.27-2.33,2.49-2.22,2.33-2,2.8-3.91,5.82-5.55,8.94-.17,.19-.34,.39-.51,.58-.19,.21-.4,.42-.59,.64,.13-.15,.23-.26,.3-.35-.12,.14-.28,.32-.37,.41-.49,.5-.99,.99-1.5,1.47-4.31,4.07-9.26,7.44-14.42,10.33-3.2,1.79-6.5,3.39-9.86,4.85-14.37,6.16-29.75,9.88-45.16,12.3-17.13,2.69-34.53,3.72-51.86,3.3-16.71-.4-33.47-2.13-49.78-5.86-13.57-3.1-27.26-7.56-39.04-15.15-8.96-5.77-17.07-13.9-19.62-24.56-.27-1.13-.47-2.27-.62-3.42-.27-2.62-.23-5.25,.1-7.86,.16-1.25-1.23,.5-1.25,.52-1.37,1.57-2.54,3.52-3.62,5.28-1.43,2.34-2.81,4.72-4.02,7.18-.69,1.4-1.71,3-1.9,4.57-.51,4.09-.3,8.23,.65,12.2-3.17,2.1-6.5,3.94-9.77,5.85-1.64,.96-3.3,1.92-4.82,3.07-3.91,2.94-6.36,7.8-8.67,11.94-1.31,2.35-2.68,4.8-3.61,7.34-.17,.48-.41,1.05-.42,1.59,0,.57,.12,1.06,.48,1.5,.96,1.14,2.88,1.55,4.23,1.89,3.69,.93,7.52,1.31,11.3,1.67,6.68,.63,13.4,.97,20.1,1.25,.72,.03,2.05-2.11,2.22-2.33,1.47-2.02,2.81-4.21,4.05-6.38,.8-1.4,1.6-2.81,2.34-4.25,.04,.02,.07,.05,.1,.07,7.12,4.95,15.12,8.57,23.28,11.44,9.52,3.34,19.38,5.68,29.32,7.37,10.97,1.87,22.07,2.95,33.18,3.41,11.48,.48,22.99,.29,34.45-.56,11.16-.83,22.28-2.27,33.24-4.5,10.05-2.04,19.99-4.72,29.57-8.4,8.3-3.19,16.43-7.1,23.67-12.32,8.67-6.26,14.91-14.5,20.24-23.7ZM20.88,113.99c1.93-1.52,3.73-3.19,5.3-5.11,1.15-1.42,2.23-2.91,3.26-4.43,.24,.52,.5,1.03,.77,1.54,1.91,3.54,4.42,6.7,7.29,9.5-5.56-.28-11.12-.69-16.61-1.5Z"/><path class="cls-1" d="M300.35,73.37c-.14-.37-2.23,2.36-2.25,2.38-1.46,2.01-2.78,4.18-4.01,6.33-1.25,2.18-2.5,4.39-3.5,6.69-.35,.8-1.24,2.21-.91,3.09,1.21,3.25,2.44,6.5,3.58,9.77,1.09,3.13,2.32,6.37,2.77,9.68,.06,.62,.09,1.23,.09,1.85-.55,.31-1.11,.6-1.68,.86-4.99,2.05-10.75,2.08-16.06,2.04-5.94-.05-11.93-.7-17.63-2.44-.58-.18-2.22,2.33-2.22,2.33-1.47,2.02-2.81,4.21-4.05,6.38-.39,.68-5.2,9.54-4.41,9.78,6.75,2.07,13.91,2.62,20.94,2.41,6.09-.18,12.11-.76,17.19-4.45,2.65-1.93,4.77-4.49,6.66-7.15,4.14-5.84,7.99-12.32,10.49-19.05,1.87-5.05,1.91-10.02,.41-15.14-1.53-5.21-3.52-10.27-5.4-15.36Z"/><path class="cls-1" d="M299.13,75.75s.02-.03,.03-.05c-.03,.04-.04,.05-.03,.05Z"/><path class="cls-1" d="M455.12,88c-5.27-2.85-11.57-1.86-15.88,2.27-5.03,4.82-8.54,11.54-11.66,17.67-.81,1.59-1.54,3.19-2.21,4.83-.11,.28-.37,.99-.47,1.3-.68,1.58-1.37,3.16-2.05,4.74-1.99,0-3.98,0-5.98,0-5.11-.03-9.31-3.51-10.08-8.57-.21-3.09-.04-6.24-.04-9.34V57.43c.46-.85,.92-1.7,1.34-2.57,.58-1.18,2.05-3.25,1.9-4.57-1.08-9.71-2.16-19.42-3.24-29.14-.11-.99-.86,.07-1.25,.52-1.37,1.57-2.54,3.52-3.62,5.28-1.43,2.34-2.81,4.72-4.02,7.18-.64,1.29-1.9,3.11-1.9,4.57V125.9c0,4.25,1.42,8.28,5.46,10.33,2.33,1.18,4.78,1.06,7.3,1.06h6.54c.47,0,.94-.69,1.2-.99,1.1-1.31,2.02-2.77,2.93-4.2,.42-.66,.83-1.32,1.24-1.99,4.91,2.43,10.05,4.49,15.26,6.11,4.17,1.3,8.58,2.42,12.97,2.36,1.73-.02,3.45-.27,5.06-.93,2.3-.94,3.75-2.69,5.19-4.68,2.81-3.88,5.25-8.14,7.35-12.44,1.25-2.57,2.47-5.21,3.09-8.03,.69-3.15,.33-6.51-.8-9.51-2.31-6.15-7.9-11.87-13.63-14.98Zm-6.55,30.32c-5.33-1.5-10.5-3.56-15.51-5.88-1.09-.51-2.18-1.02-3.25-1.57,.44-1.02,.89-2.05,1.33-3.07,.16-.38,.33-.75,.49-1.13,.57-.36,1.16-.68,1.78-.97,5.84-2.25,11.1,.3,15.64,4.06,3.42,2.83,6.58,6.3,8.45,10.35-3.08-.21-6.19-1.02-8.92-1.79Z"/><path class="cls-1" d="M3.91,52.79c5.08,2.88,10.17,5.76,15.25,8.63,.64,.36,3.2-3.28,5.66-7.43,4.37,2.48,8.75,4.95,13.12,7.43,1.41,.8,12.03-17.72,10.68-18.49-5.08-2.88-10.17-5.76-15.25-8.63-.64-.36-3.2,3.28-5.66,7.43-4.37-2.48-8.75-4.95-13.12-7.43-1.41-.8-12.03,17.72-10.68,18.49Z"/><path class="cls-1" d="M307.92,46.38c-5.08-2.88-10.17-5.76-15.25-8.63-.64-.36-3.2,3.28-5.66,7.43-4.37-2.48-8.75-4.95-13.12-7.43-1.41-.8-12.03,17.72-10.68,18.49,5.08,2.88,10.17,5.76,15.25,8.63,.64,.36,3.2-3.28,5.66-7.43,4.37,2.48,8.75,4.95,13.12,7.43,1.41,.8,12.03-17.72,10.68-18.49Z"/><path class="cls-1" d="M174.63,166.36c-5.08-2.88-10.17-5.76-15.25-8.63-.64-.36-3.2,3.28-5.66,7.43-4.37-2.48-8.75-4.95-13.12-7.43-1.41-.8-12.03,17.72-10.68,18.49,5.08,2.88,10.17,5.76,15.25,8.63,.64,.36,3.2-3.28,5.66-7.43,4.37,2.48,8.75,4.95,13.12,7.43,1.41,.8,12.03-17.72,10.68-18.49Z"/><path class="cls-1" d="M977.29,107.78c-1.15-1.8-2.78-2.84-4.52-3.96-8.85-5.75-18.32-10.66-28.21-14.35-.55-.21-2.25,2.38-2.22,2.33-1.47,2.02-2.81,4.21-4.05,6.38-.4,.7-5.29,9.45-4.41,9.78,8.65,3.22,16.93,7.4,24.8,12.21,2.62,1.6,5.56,3.14,7.41,5.51-1.94,0-3.87,0-5.81,0-4.56,0-9.13,0-13.69,0-7.85,0-15.71-.02-23.56,.02-.74,0-2.02,2.06-2.22,2.33-1.47,2.02-2.81,4.21-4.05,6.38-1.25,2.18-2.5,4.39-3.5,6.69-.12,.27-1.27,3.09-.91,3.09,14.74-.08,29.48-.02,44.22,0,1.28,0,2.28,0,3.45-.55,1.28-.6,2.38-1.5,3.38-2.48,2.12-2.09,3.84-4.51,5.48-6.98,2.98-4.49,5.76-9.3,7.89-14.26,1.65-3.85,2.95-8.29,.51-12.12Z"/><path class="cls-1" d="M802.02,68.54c5.08,2.88,10.17,5.76,15.25,8.63,1.41,.8,12.03-17.72,10.68-18.49-5.08-2.88-10.17-5.76-15.25-8.63-1.41-.8-12.03,17.72-10.68,18.49Z"/><path class="cls-1" d="M915.96,101.31c.13-.29,1.08-3.14,.91-3.09-4.1,1.36-8.18,2.77-12.27,4.15-9.27,1.65-19.13,.75-28.27-.43-14.75-1.91-29.26-5.28-43.98-7.36-7.57-1.07-15.24-1.83-22.89-1.49-.76,.03-1.99,2.02-2.22,2.33-1.47,2.02-2.81,4.21-4.05,6.38-1.25,2.18-2.5,4.39-3.5,6.69-.12,.27-1.26,3.1-.91,3.09,14.81-.64,29.63,2.45,44.12,5.09,1.23,.22,2.46,.45,3.7,.68-17.67,3.33-35.53,5.65-53.47,6.92-23.59,1.66-47.3,1.49-70.86-.59,0-1.7-.62-3.61-.96-5.25-.5-2.41-1.08-4.8-1.77-7.15-1.1-3.77-2.48-7.49-4.33-10.96-2.46-4.61-5.95-9.12-10.87-11.25-3.64-1.57-7.68-1.49-11.33,0-4.49,1.82-7.71,5.23-10.49,9.11-4.06,5.65-7.69,11.94-10.27,18.42-.79,1.99-1.4,4.12-1.53,6.27-.61,10.68,9.55,15.46,18.65,16.78,7.31,1.06,14.65,1.9,22.01,2.56-.06,.34-.12,.67-.19,1-.02,.12-.05,.23-.08,.35-.42,.4-.85,.8-1.29,1.18-3.26,2.83-6.97,5.06-10.91,6.8-11.97,5.06-25.39,5.56-38.18,4.46-.09,0-.19,.02-.29,.08l15.8,17.55c7.64-1.43,14.96-4.14,21.28-8.79,5.13-3.77,9.12-8.77,12.54-14.09,1.71-2.66,3.43-5.41,5.02-8.23,16.82,1.35,33.74,1.69,50.58,1.12,21.28-.71,42.51-2.92,63.48-6.56,15.93-2.76,31.72-6.35,47.26-10.78,6.06-1.73,12.07-3.61,18.05-5.59,4.23-.78,8.34-2.1,12.15-4.18,1.07-.58,2.45-3.08,3.01-3.93,1.24-1.9,2.4-3.85,3.51-5.83,1-1.78,2-3.58,2.81-5.46Zm-216.07,19.81c-3.03-.45-6.05-1.16-8.86-2.4-3.94-1.74-7.48-4.65-8.9-8.84-.22-.65-.38-1.31-.49-1.98,.23-.12,.46-.23,.7-.33,4.14-1.69,8.71-1.52,12.66,.64,5.28,2.89,8.71,8.32,11.09,13.76-2.07-.26-4.13-.54-6.19-.84Z"/><path class="cls-1" d="M375.14,102.76c-1.67-2.98-3.81-5.99-6.44-8.21-.74-.63-5.85,7.99-6.26,8.71-1.25,2.18-2.5,4.39-3.5,6.69-.21,.49-1.42,2.66-.91,3.09,5.73,4.84,9.32,12.54,10.29,19.87-.17,.87-.41,1.73-.64,2.58l-.04,.15s-.03,.09-.05,.15c-.19,.58-.37,1.16-.58,1.74-.19,.55-.39,1.09-.59,1.63-.06,.15-.12,.31-.18,.46-.29,.36-.58,.71-.88,1.07-.31,.36-.63,.72-.95,1.08-.14,.16-.29,.31-.43,.47h0c-.86,.85-1.7,1.7-2.59,2.51-3.95,3.55-8.45,6.41-13.3,8.54-9.54,4-19.95,4.95-30.19,4.08-.1,0-.21,.03-.32,.1l14.56,16.18c2.23-.66,4.42-1.46,6.57-2.41,7.55-3.36,14-8.63,19.2-15.01,7-8.58,12.83-18.61,17.17-28.79,1.55-3.64,3.46-7.78,3.98-11.75,.15-1.15-.18-2.37-.4-3.5-.66-3.29-1.86-6.47-3.5-9.4Zm-11.16,39.45c.44-.48,.15-.15,0,0h0Z"/><path class="cls-1" d="M598.38,121.24c.03-.07,.07-.15,.1-.23-.02,.05-.05,.1-.07,.15l-.03,.08Z"/><path class="cls-1" d="M653.01,101.16c-1.41-3.13-2.93-6.23-4.65-9.2-.2-.35-2.07,2.14-2.23,2.36-1.47,2.01-2.79,4.2-4.03,6.36-1.25,2.18-2.5,4.39-3.5,6.69-.3,.68-1.33,2.36-.91,3.09,1.62,2.81,3.07,5.73,4.41,8.68,2.35,5.17,4.54,10.64,5.25,16.31,.13,1.38,.17,2.78-.04,4.16-.11,.67-.28,1.33-.45,1.99-.03,.1-.12,.42-.16,.54-.02,.07-.04,.14-.07,.21l-.04,.04c-.08,.08-.41,.43-.5,.53-.52,.53-1.05,1.04-1.6,1.54-2.49,2.25-5.28,4.12-8.35,5.48-7.77,3.16-16.09,2.14-23.51-1.56-7.12-3.55-14.52-8.98-15.74-17.38-.19-1.99-.06-3.97,.34-5.93,.12-.57,.26-1.13,.4-1.69v-.06c.09-.25,.17-.49,.26-.74,.15-.44,.32-.88,.49-1.32-.03,.07-.06,.13-.09,.18,.05-.08,.08-.17,.12-.26l.04-.12c.06-.15,.09-.25,.12-.31l.02-.04,.02-.04c-.02,.06-.07,.2-.14,.36,.06-.15,.12-.29,.18-.43l.04-.08c.08-.14,.15-.26,.21-.37,.28-.49,.57-.98,.86-1.46,.07-.11,.13-.23,.2-.34,.85-1.43,1.7-2.85,2.54-4.28,1.26-2.15,2.49-4.41,3.5-6.69,.03-.07,1.34-2.62,.91-3.09-.5-.54-5.13,6.87-6.09,8.43-.27,.45-.53,.89-.8,1.34-1.06,1.78-2.13,3.56-3.17,5.36-2.32,4.03-4.52,8.13-6.52,12.33-2.28,4.79-4.51,10.18-4.33,15.59,.18,5.22,2.59,9.69,6.4,13.2,5,4.62,11.77,8.18,18.48,9.41,11.44,2.1,21.61-3.89,28.66-12.51,6.05-7.4,11.02-16.03,14.94-24.73,1.99-4.41,4.08-9.36,3.69-14.3-.47-6-2.73-11.8-5.17-17.24Zm-54.74,20.1s0,0,.03-.04c-.35,.64-.25,.45-.03,.04Z"/><path class="cls-1" d="M646.13,94.32l.02-.02s-.04,.05-.02,.02Z"/><path class="cls-1" d="M600.83,112.7h0l.16-.27-.16,.27Z"/><path class="cls-1" d="M600.83,112.7c-.1,.17-.17,.27-.17,.28-.48,.82-1.76,2.96,.17-.28Z"/><path class="cls-1" d="M609.52,86.7c5.08,2.88,10.17,5.76,15.25,8.63,1.41,.8,12.03-17.72,10.68-18.49-5.08-2.88-10.17-5.76-15.25-8.63-1.41-.8-12.03,17.72-10.68,18.49Z"/><g><path class="cls-1" d="M563.79,.22c-1.86,1.26-3.35,4.12-4.51,5.9-2.25,3.45-4.34,6.99-6.31,10.61-2.53,4.64-5.05,9.27-7.58,13.91-6.07,11.13-12.13,22.26-18.2,33.39-7.34,13.47-14.68,26.93-22.02,40.4-6.34,11.64-12.69,23.28-19.03,34.92-3.08,5.64-6.16,11.28-9.23,16.93-.04,.08-.09,.17-.13,.25-1.48,2.72-3.13,5.7-4.15,8.66-.08,.25-1.22,3.02,.26,2.02,1.86-1.26,3.35-4.12,4.51-5.9,2.25-3.45,4.34-6.99,6.31-10.61,1.76-3.22,3.51-6.44,5.27-9.66,5.91,4.24,12.89,7.96,19.99,9.23,5.43,.97,10.34-.28,13.94-4.61,3.09-3.72,5.57-8.08,7.84-12.32,1.7-3.17,3.3-6.41,4.31-9.87,.98-3.38,.85-6.71,0-10.11-1.21-4.87-3.57-9.42-6.05-13.75-2.9-5.06-6.14-9.91-9.43-14.72,3.97-7.29,7.95-14.59,11.92-21.88,6.34-11.64,12.69-23.28,19.03-34.92,3.08-5.64,6.16-11.28,9.23-16.93,.04-.08,.09-.17,.13-.25,1.48-2.72,3.13-5.7,4.15-8.66,.08-.25,1.22-3.02-.26-2.02Zm-50.42,129.72c-4.49-1.73-8.73-4.11-12.73-6.77-.47-.31-.94-.64-1.41-.96,3.34-6.12,6.67-12.24,10.01-18.36,3.56,5.21,7.06,10.48,10.1,16.01,2.1,3.84,4.1,7.92,5.11,12.21-3.75,.29-7.65-.81-11.08-2.13Z"/><path class="cls-1" d="M493.59,80.39c3.26,5.32,6.74,10.49,10.26,15.63,.26,.39,2.51-2.74,2.22-2.33,1.47-2.02,2.81-4.21,4.05-6.38,1.25-2.18,2.5-4.39,3.5-6.69,.28-.64,1.36-2.43,.91-3.09-5.36-7.81-10.64-15.7-15.12-24.05-3.93-7.3-7.45-15.14-8.52-23.44-.23-2.19-.28-4.4-.01-6.59,.1-.84,.25-1.68,.45-2.51,.94-1.74,1.78-3.52,2.41-5.35,.21-.61,.76-1.62-.17-1.34-.25,.27-.51,.54-.76,.8-.8,1-1.55,2.04-2.25,3.13-4.21,6.61-9.09,14.04-10.35,21.98-.67,4.2-.19,8.55,.77,12.66,2.3,9.86,7.36,19.01,12.61,27.58Zm-1.88-60.78c.05-.14,.08-.23,.1-.23l-.1,.23Z"/></g></g><g><polygon class="cls-1" points="711.51 260.28 717.28 268.95 717.28 313.81 728.43 313.81 728.43 268.95 728.43 260.28 717.28 260.28 711.51 260.28"/><path class="cls-1" d="M264.84,260.67c-4.59-1.34-9.25-1.54-13.96-.85-8.04,1.18-13.95,5.47-18,12.41-2.69,4.62-3.72,9.68-3.73,15.71,.04,5.56,1.54,11.4,5.28,16.56,3.18,4.4,7.28,7.52,12.51,9.1,4.54,1.37,9.15,1.62,13.82,.95,4.46-.64,8.58-2.17,12.09-5.06,4.96-4.08,8.06-9.31,9.3-15.59,1.49-7.57,.79-14.88-3.08-21.69-3.23-5.68-7.86-9.69-14.22-11.55Zm4.53,39.52c-1.04,3.39-2.63,6.51-5.43,8.97-4.94,4.33-11.96,4-16.48-.7-2.72-2.83-4.39-6.14-5.22-9.81-1.71-7.62-1.7-15.26-.02-22.89,.7-3.19,2.03-6.15,4.19-8.74,1.76-2.12,3.84-3.87,6.69-4.54,4.6-1.08,8.47,.24,11.62,3.44,2.35,2.39,3.77,5.27,4.67,8.38,1.08,3.74,1.59,7.87,1.6,13.13-.08,4.13-.31,8.5-1.62,12.75Z"/><path class="cls-1" d="M217.14,276.03c0-1.8-.06-3.59-.39-5.37-.87-4.74-3.54-8.05-7.97-9.86-4.64-1.9-9.37-1.84-14.05-.13-7.58,2.78-12.21,9.34-12.21,9.34v-35.1h-16.92l5.77,8.67v70.22h11.15v-40.34s6.52-8.66,14.64-8.67c3.7,0,6.39,2.2,7.84,5.69,.83,1.99,1.02,4.1,1.02,6.23,0,10.66,0,26.43,0,37.09h11.12c0-10.88,0-26.89,0-37.77Z"/><path class="cls-1" d="M402.47,276.03c0-1.8-.06-3.59-.39-5.37-.87-4.74-3.54-8.05-7.97-9.86-4.64-1.9-9.37-1.84-14.05-.13-7.58,2.78-12.21,9.34-12.21,9.34v-9.74h-16.92l5.77,8.67v44.85h11.15v-40.34s6.52-8.66,14.64-8.67c3.7,0,6.39,2.2,7.84,5.69,.83,1.99,1.02,4.1,1.02,6.23,0,10.66,0,26.43,0,37.09h11.12c0-10.88,0-26.89,0-37.77Z"/><polygon class="cls-1" points="128.01 282.57 136.3 274.28 148.77 278.28 150.74 267.84 142.26 265.84 134.42 273.68 134.42 273.68 120.14 287.96 120.14 243.59 120.14 234.92 108.99 234.92 103.22 234.92 108.99 243.59 108.99 313.81 120.14 313.81 120.14 290.44 126.65 283.93 145.75 313.81 156.9 313.81 135.91 280.98 128.01 282.57"/><polygon class="cls-1" points="512.34 234.92 518.11 243.59 518.11 313.81 529.25 313.81 529.25 243.59 529.25 234.92 518.11 234.92 512.34 234.92"/><path class="cls-1" d="M472.76,234.92h-13.99l7.83,8-28.89,70.89h2.9l15.6-38.28v.29h25l15.48,37.99h11.15l-32.15-78.89h-2.93Zm7.55,38.71h-23.33l11.66-28.62,11.66,28.62Z"/><path class="cls-1" d="M855.12,244.82l-11.15,8.24v7.65h-7.45v2.19h7.45v29.81h0c0,2.29,0,4.57,0,6.86,0,1.43,.05,2.85,.26,4.27,.67,4.59,2.98,8.06,7.3,9.83,5.3,2.17,10.38,1.43,15.09-1.8,1.28-.87,2.37-1.96,3.19-3.33-1.29,.63-2.58,1.16-3.99,1.39-4.78,.78-8.92-1.9-10.16-6.56-.45-1.71-.53-3.46-.54-5.21,0-3.26,0-6.51,0-9.77h0v-25.5h15.9v-2.19h-15.9v-15.9Z"/><path class="cls-1" d="M697.64,276.03c0-1.8-.06-3.59-.39-5.37-.87-4.74-3.54-8.05-7.97-9.86-4.64-1.9-9.37-1.84-14.05-.13-7.58,2.78-12.21,9.34-12.21,9.34v3.45s6.52-8.66,14.64-8.67c3.7,0,6.39,2.2,7.84,5.69,.83,1.99,1.02,4.1,1.02,6.23,0,10.66,0,26.43,0,37.09h11.12c0-10.88,0-26.89,0-37.77Z"/><path class="cls-1" d="M663.01,276.03c0-1.8-.06-3.59-.39-5.37-.87-4.74-3.54-8.05-7.97-9.86-4.64-1.9-9.37-1.84-14.05-.13-7.58,2.78-12.21,9.34-12.21,9.34v-9.74h-16.92l5.77,8.67v44.85h11.15v-40.34s6.52-8.66,14.64-8.67c3.7,0,6.39,2.2,7.84,5.69,.83,1.99,1.02,4.1,1.02,6.23,0,10.66,0,26.43,0,37.09h11.12c0-10.88,0-26.89,0-37.77Z"/><path class="cls-1" d="M827.43,276.34h0v-.08c0-1.2-.03-2.4-.09-3.59-.33-6.29-4.57-11.24-10.71-12.68-3.95-.93-7.88-.65-11.79,.16-5.57,1.15-16.81,5.51-17.04,5.93,1.81,2.76,3.62,5.53,5.51,8.41,.72-.77,6.42-6.38,8.9-8.87,1.49-1.5,2.94-3.09,4.91-3.94,3.39-1.47,7.08,.09,8.39,3.53,.48,1.26,.73,2.57,.74,3.92,.02,3.88,.03,6.12,.03,10-10.82,1.67-19.27,5.9-24.53,9.67-4.15,3.06-6.98,6.96-7.22,12.32-.2,4.43,1.26,8.12,4.99,10.78,3.88,2.76,8.21,3.39,12.78,2.73,7.95-1.25,13.25-8.06,14-9.07v8.26h16.92l-5.77-8.67v-28.79Zm-11.89,27.89c-2.02,2.77-4.51,4.85-7.97,5.55-5.54,1.11-10.69-1.36-11.86-6.9-1.11-5.23,.45-9.75,4.08-13.58,6.73-6.77,16.47-7.84,16.47-7.84,0,0,0,13.65,.02,20.47,0,.88-.23,1.59-.74,2.29Z"/><path class="cls-1" d="M951.33,305.13v-28.79h0v-.08c0-1.2-.03-2.4-.09-3.59-.33-6.29-4.57-11.24-10.71-12.68-3.95-.93-7.88-.65-11.79,.16-5.57,1.15-16.81,5.51-17.04,5.93,1.81,2.76,3.62,5.53,5.51,8.41,.72-.77,6.42-6.38,8.9-8.87,1.49-1.5,2.94-3.09,4.91-3.94,3.39-1.47,7.08,.09,8.39,3.53,.48,1.26,.73,2.57,.74,3.92,.02,3.88,.03,6.12,.03,10-10.82,1.67-19.27,5.9-24.53,9.67-4.15,3.06-6.98,6.96-7.22,12.32-.2,4.43,1.26,8.12,4.99,10.78,3.88,2.76,8.21,3.39,12.78,2.73,7.95-1.25,13.25-8.06,14-9.07v8.26h16.92l-5.77-8.67Zm-11.89-.9c-2.02,2.77-4.51,4.85-7.97,5.55-5.54,1.11-10.69-1.36-11.86-6.9-1.11-5.23,.45-9.75,4.08-13.58,6.73-6.77,16.47-7.84,16.47-7.84,0,0,0,13.65,.02,20.47,0,.88-.23,1.59-.74,2.29Z"/><path class="cls-1" d="M722.85,237.62h0c-3.87,0-7.01,3.14-7.01,7.01h0c0,3.87,3.14,7.01,7.01,7.01h0c3.87,0,7.01-3.14,7.01-7.01h0c0-3.87-3.14-7.01-7.01-7.01Z"/><polygon class="cls-1" points="879.63 260.28 885.4 268.95 885.4 313.81 896.55 313.81 896.55 268.95 896.55 260.28 885.4 260.28 879.63 260.28"/><path class="cls-1" d="M890.98,237.62c-3.87,0-7.01,3.14-7.01,7.01h0c0,3.87,3.14,7.01,7.01,7.01s7.01-3.14,7.01-7.01h0c0-3.87-3.14-7.01-7.01-7.01Z"/><path class="cls-1" d="M326.17,260.67c-4.59-1.34-9.25-1.54-13.96-.85-8.04,1.18-13.95,5.47-18,12.41-2.69,4.62-3.72,9.68-3.73,15.71,.04,5.56,1.54,11.4,5.28,16.56,3.18,4.4,7.28,7.52,12.51,9.1,4.54,1.37,9.15,1.62,13.82,.95,4.46-.64,8.58-2.17,12.09-5.06,4.96-4.08,8.06-9.31,9.3-15.59,1.49-7.57,.79-14.88-3.08-21.69-3.23-5.68-7.86-9.69-14.22-11.55Zm4.53,39.52c-1.04,3.39-2.63,6.51-5.43,8.97-4.94,4.33-11.96,4-16.48-.7-2.72-2.83-4.39-6.14-5.22-9.81-1.71-7.62-1.7-15.26-.02-22.89,.7-3.19,2.03-6.15,4.19-8.74,1.76-2.12,3.84-3.87,6.69-4.54,4.6-1.08,8.47,.24,11.62,3.44,2.35,2.39,3.77,5.27,4.67,8.38,1.08,3.74,1.59,7.87,1.6,13.13-.08,4.13-.31,8.5-1.62,12.75Z"/><path class="cls-1" d="M78.79,243.28c-6.67-5.5-14.47-8.08-22.98-8.25-3.35-.07-11.64-.09-15-.11H23.9l5.77,8.67v70.22h11.15c1.95,0,8.84,0,10.79,0,3.51,0,7-.19,10.46-.8,7.88-1.38,14.65-4.84,20.16-10.66,5.17-5.45,8.14-11.98,9.41-19.35,1.23-7.14,1.03-14.23-.87-21.24-2.02-7.43-6.04-13.59-11.98-18.49Zm.59,37.97c-.49,6.48-1.79,11.13-4.77,16.97-2.21,4.32-5.23,7.91-9.58,10.23-3.4,1.81-7.05,2.72-10.87,2.82-2.79,.07-10.54,.06-13.33,.05v-73.94c2.87-.01,10.68-.03,13.55,.06,3.77,.13,7.38,1,10.72,2.85,4.27,2.36,7.26,5.89,9.47,10.16,2.36,4.56,3.61,8.63,4.34,13.67,.86,5.96,.94,11.13,.48,17.12Z"/><polygon class="cls-1" points="763.83 266.55 759.64 270.74 759.64 268.95 759.64 260.28 748.5 260.28 742.73 260.28 748.5 268.95 748.5 313.81 759.64 313.81 759.64 273.23 765.72 267.16 778.19 271.16 780.15 260.72 771.67 258.72 763.83 266.55"/><polygon class="cls-1" points="562.64 311.57 562.64 275.81 595.33 275.81 595.33 273.63 562.64 273.63 562.64 243.59 562.64 237.11 589.36 237.11 598.35 251.84 598.35 234.92 592.86 234.92 588.03 234.92 562.64 234.92 562.64 234.92 551.49 234.92 545.72 234.92 551.49 243.59 551.49 313.81 562.64 313.81 562.64 313.76 592.42 313.76 595.33 313.76 602.74 313.76 602.74 296.84 593.75 311.57 562.64 311.57"/></g></g><g><path class="cls-1" d="M1132.86,188.82c.61,.89,5.77-6.29,5.1-5.36,3.39-4.65,6.45-9.68,9.3-14.67,2.86-5.01,5.75-10.08,8.05-15.38,.63-1.46,3.12-5.58,2.09-7.09-12.31-17.94-24.44-36.08-34.75-55.27-9.02-16.79-17.12-34.8-19.58-53.87-.52-5.04-.64-10.11-.03-15.15,.24-1.94,.58-3.87,1.03-5.77,2.16-4,4.08-8.09,5.55-12.3,.49-1.41,1.75-3.72-.4-3.09-.58,.62-1.16,1.23-1.74,1.85-1.84,2.3-3.57,4.7-5.16,7.18-9.67,15.19-20.89,32.26-23.78,50.5-1.53,9.65-.43,19.64,1.77,29.1,5.28,22.67,16.92,43.69,28.98,63.38,7.48,12.22,15.48,24.11,23.59,35.93Zm-27.68-176.14c-.08,.2-.16,.36-.23,.53,.11-.32,.2-.54,.23-.53Z"/><path class="cls-1" d="M1204.58,228.59c-2.79-11.18-8.2-21.66-13.9-31.6-7.25-12.66-15.45-24.75-23.69-36.78-.61-.89-5.77,6.29-5.1,5.36-3.39,4.65-6.45,9.68-9.3,14.67-2.86,5.01-5.75,10.08-8.05,15.38-.63,1.46-3.12,5.58-2.09,7.09,9.12,13.31,18.23,26.71,25.99,40.87,4.83,8.82,9.42,18.19,11.74,28.06-8.61,.68-17.58-1.86-25.45-4.9-10.31-3.98-20.07-9.44-29.25-15.56-1.98-1.32-3.94-2.66-5.84-4.09-1.93-1.46-13.4,18.29-14.39,20.02-2.86,5.01-5.75,10.08-8.05,15.38-.46,1.06-3.26,6.21-2.09,7.09,14.3,10.8,31.75,20.66,49.52,23.83,12.48,2.23,23.76-.64,32.03-10.6,7.1-8.56,12.79-18.56,18.02-28.31,3.91-7.29,7.59-14.72,9.9-22.68,2.25-7.76,1.96-15.43,.01-23.24Z"/></g></svg>