<?xml version="1.0" encoding="utf-8"?>
<!-- Generator: Adobe Illustrator 26.3.1, SVG Export Plug-In . SVG Version: 6.00 Build 0)  -->
<svg version="1.1" id="Logo" xmlns="http://www.w3.org/2000/svg" xmlns:xlink="http://www.w3.org/1999/xlink" x="0px" y="0px"
	 viewBox="0 0 1311 703.4" style="enable-background:new 0 0 1311 703.4;" xml:space="preserve">
<style type="text/css">
	.st0{fill:#E3E3DE;}
</style>
<g>
	<path class="st0" d="M718.9,503c0-0.1,0-0.2,0-0.2c-2.6-0.7-5.4-1.9-7-4.2c-0.2-0.2-0.3-0.4-0.4-0.6c0.1,0,0.2-0.1,0.3-0.1
		c3.1-0.8,6.3-0.5,9.3,0.4c1,0.3,3.8-5.1,4.2-5.8c0.3-0.5,3.5-6.4,3-6.5c-3.8-1.2-7.8-1.3-11.5,0.4c-4.6,2.1-7.2,6.9-9.6,11.1
		c-1.9,3.4-4.5,7.6-3.3,11.6c0.3,1.1,0.9,2.1,1.7,2.9c-0.6,1-1.2,2.1-1.8,3.1c-0.7,1.2-1.5,2.5-1.8,3.9c-0.1,0.3-0.5,1.2,0.1,0.9
		c6.9-3.4,14.2-6.2,21.4-8.9c1.8-0.6,3.3-4.3,4.2-5.8c0.8-1.5,1.7-2.9,2.3-4.5c0.1-0.2,0.7-2.1,0.6-2.1
		C726.6,500,722.7,501.5,718.9,503L718.9,503z"/>
	<path class="st0" d="M437.2,476.4c1.2-0.4,3.5-4.5,4-5.3c3.5-5.4,7.1-11.1,9.3-17.2c2.8-7.4,3.6-15.5,4.1-23.4
		c0.7-10.5,0.7-21.1,0.5-31.6c-0.4-21.2-1.7-42.4-1.8-63.7c0-4.2,0-8.4,0.3-12.5c0.1-1.5,0.2-3,0.5-4.4c0.1-0.6,0.2-1.2,0.4-1.9v0
		c0,0,0-0.1,0.1-0.1c0.4-1,0.9-2.2-0.2-1.8c-1.2,0.4-3.5,4.5-4,5.3c-3.5,5.4-7,11.1-9.3,17.2c-2.1,5.6-2,12-2.1,17.8
		c-0.1,9.6,0.2,19.1,0.6,28.7c0.8,22,2,44,1,65.9c-0.2,5-0.6,10.1-1.3,15.1c-0.3,2-0.6,4-1.1,6c-0.2,0.9-0.5,1.8-0.7,2.7l0,0.1
		c-0.2,0.4-0.3,0.9-0.5,1.3C436.6,475.6,436,476.8,437.2,476.4L437.2,476.4z"/>
	<path class="st0" d="M763,335.3c0-4.2,0-8.4,0.3-12.5c0.1-1.5,0.2-3,0.5-4.4c0.1-0.6,0.2-1.2,0.4-1.9v0c0,0,0-0.1,0.1-0.1
		c0.4-1,0.9-2.2-0.2-1.8c-1.2,0.4-3.5,4.5-4,5.3c-3.5,5.4-7,11.1-9.3,17.2c-2.2,5.6-2,12-2.1,17.8c-0.1,9.6,0.2,19.1,0.6,28.7
		c0.8,22,2,44,1,65.9c-0.2,5-0.6,10.1-1.3,15.1c-0.3,2-0.6,4-1.1,6c-0.2,0.9-0.5,1.8-0.7,2.7l0,0.1c-0.2,0.4-0.3,0.9-0.5,1.3
		c-0.4,1-0.9,2.2,0.2,1.8c1.2-0.4,3.5-4.5,4-5.3c3.5-5.4,7.1-11.1,9.3-17.2c2.8-7.4,3.6-15.5,4.1-23.4c0.7-10.5,0.7-21.1,0.5-31.6
		C764.5,377.7,763.1,356.5,763,335.3L763,335.3z"/>
	<path class="st0" d="M361.1,415.8C361.3,415.6,361.5,415.5,361.1,415.8L361.1,415.8z"/>
	<path class="st0" d="M364.1,412.8c2.6-4.6,5.2-9.3,7.3-14.1c-0.1,0.2,1.9-3.8,1.2-4.1c-0.6-0.4-3.1,3.3-3,3.1
		c-2.7,3.8-5.2,7.8-7.4,12c-0.2,0.3-0.5,0.5-0.7,0.8c-0.3,0.3-0.5,0.6-0.8,0.9c0.2-0.2,0.3-0.4,0.4-0.5c-0.2,0.2-0.4,0.4-0.5,0.5
		c-0.7,0.7-1.3,1.3-2,2c-5.8,5.5-12.4,10-19.3,13.8c-4.3,2.4-8.7,4.5-13.2,6.5c-19.3,8.2-39.9,13.2-60.5,16.5
		c-22.9,3.6-46.3,5-69.5,4.4c-22.4-0.5-44.8-2.9-66.7-7.9c-18.2-4.2-36.5-10.1-52.3-20.3c-12-7.7-22.9-18.6-26.3-32.9
		c-0.4-1.5-0.6-3-0.8-4.6c-0.4-3.5-0.3-7,0.1-10.5c0.2-1.7-1.7,0.7-1.7,0.7c-1.8,2.1-3.4,4.7-4.8,7.1c-1.9,3.1-3.8,6.3-5.4,9.6
		c-0.9,1.9-2.3,4-2.5,6.1c-0.7,5.5-0.4,11,0.9,16.4c-4.2,2.8-8.7,5.3-13.1,7.8c-2.2,1.3-4.4,2.6-6.5,4.1c-5.2,3.9-8.5,10.5-11.6,16
		c-1.8,3.1-3.6,6.4-4.8,9.8c-0.2,0.6-0.6,1.4-0.6,2.1c0,0.8,0.2,1.4,0.6,2c1.3,1.5,3.9,2.1,5.7,2.5c4.9,1.2,10.1,1.8,15.1,2.2
		c9,0.9,18,1.3,26.9,1.7c1,0,2.8-2.8,3-3.1c2-2.7,3.8-5.6,5.4-8.5c1.1-1.9,2.2-3.8,3.1-5.7c0,0,0.1,0.1,0.1,0.1
		c9.5,6.6,20.3,11.5,31.2,15.3c12.8,4.5,26,7.6,39.3,9.9c14.7,2.5,29.6,4,44.5,4.6c15.4,0.6,30.8,0.4,46.1-0.8
		c14.9-1.1,29.9-3,44.5-6c13.5-2.7,26.8-6.3,39.6-11.3c11.1-4.3,22-9.5,31.7-16.5C348.6,436.2,356.9,425.2,364.1,412.8L364.1,412.8z
		 M28,439.2c2.6-2,5-4.3,7.1-6.9c1.5-1.9,3-3.9,4.4-5.9c0.3,0.7,0.7,1.4,1,2.1c2.6,4.8,5.9,9,9.8,12.7
		C42.8,440.9,35.3,440.3,28,439.2L28,439.2z"/>
	<path class="st0" d="M402.4,384.8c-0.2-0.5-3,3.2-3,3.2c-2,2.7-3.7,5.6-5.4,8.5c-1.7,2.9-3.4,5.9-4.7,9c-0.5,1.1-1.7,3-1.2,4.1
		c1.6,4.4,3.3,8.7,4.8,13.1c1.5,4.2,3.1,8.5,3.7,13c0.1,0.8,0.1,1.6,0.1,2.5c-0.7,0.4-1.5,0.8-2.2,1.1c-6.7,2.7-14.4,2.8-21.5,2.7
		c-8-0.1-16-0.9-23.6-3.3c-0.8-0.2-3,3.1-3,3.1c-2,2.7-3.8,5.6-5.4,8.5c-0.5,0.9-7,12.8-5.9,13.1c9,2.8,18.6,3.5,28,3.2
		c8.2-0.2,16.2-1,23-6c3.6-2.6,6.4-6,8.9-9.6c5.5-7.8,10.7-16.5,14-25.5c2.5-6.8,2.6-13.4,0.5-20.3
		C407.6,398.4,404.9,391.6,402.4,384.8L402.4,384.8z"/>
	<path class="st0" d="M400.7,388C400.7,388,400.8,388,400.7,388C400.7,388,400.7,388,400.7,388z"/>
	<path class="st0" d="M609.7,404.4c-7.1-3.8-15.5-2.5-21.3,3c-6.7,6.5-11.4,15.5-15.6,23.7c-1.1,2.1-2.1,4.3-3,6.5
		c-0.2,0.4-0.5,1.3-0.6,1.7c-0.9,2.1-1.8,4.2-2.8,6.4c-2.7,0-5.3,0-8,0c-6.8,0-12.5-4.7-13.5-11.5c-0.3-4.1,0-8.4,0-12.5v-58.2
		c0.6-1.1,1.2-2.3,1.8-3.4c0.8-1.6,2.7-4.4,2.5-6.1c-1.5-13-2.9-26-4.3-39c-0.2-1.3-1.2,0.1-1.7,0.7c-1.8,2.1-3.4,4.7-4.8,7.1
		c-1.9,3.1-3.8,6.3-5.4,9.6c-0.8,1.7-2.5,4.2-2.5,6.1v116.8c0,5.7,1.9,11.1,7.3,13.8c3.1,1.6,6.4,1.4,9.8,1.4h8.8
		c0.6,0,1.3-0.9,1.6-1.3c1.5-1.8,2.7-3.7,3.9-5.6c0.6-0.9,1.1-1.8,1.7-2.7c6.6,3.2,13.5,6,20.4,8.2c5.6,1.7,11.5,3.2,17.4,3.2
		c2.3,0,4.6-0.4,6.8-1.2c3.1-1.3,5-3.6,7-6.3c3.8-5.2,7-10.9,9.8-16.7c1.7-3.5,3.3-7,4.1-10.8c0.9-4.2,0.5-8.7-1.1-12.7
		C624.8,416.3,617.4,408.6,609.7,404.4L609.7,404.4z M600.9,445c-7.1-2-14.1-4.8-20.8-7.9c-1.5-0.7-2.9-1.4-4.4-2.1
		c0.6-1.4,1.2-2.7,1.8-4.1c0.2-0.5,0.4-1,0.7-1.5c0.8-0.5,1.6-0.9,2.4-1.3c7.8-3,14.9,0.4,21,5.4c4.6,3.8,8.8,8.4,11.3,13.9
		C608.8,447.1,604.6,446.1,600.9,445L600.9,445z"/>
	<path class="st0" d="M5.2,357.2c6.8,3.9,13.6,7.7,20.4,11.6c0.9,0.5,4.3-4.4,7.6-10c5.9,3.3,11.7,6.6,17.6,10
		c1.9,1.1,16.1-23.7,14.3-24.8c-6.8-3.9-13.6-7.7-20.4-11.6c-0.9-0.5-4.3,4.4-7.6,10c-5.9-3.3-11.7-6.6-17.6-10
		C17.7,331.4,3.4,356.2,5.2,357.2z"/>
	<path class="st0" d="M412.5,348.7c-6.8-3.9-13.6-7.7-20.4-11.6c-0.9-0.5-4.3,4.4-7.6,10c-5.9-3.3-11.7-6.6-17.6-10
		c-1.9-1.1-16.1,23.7-14.3,24.8c6.8,3.9,13.6,7.7,20.4,11.6c0.9,0.5,4.3-4.4,7.6-10c5.9,3.3,11.7,6.6,17.6,10
		C400.1,374.5,414.3,349.7,412.5,348.7z"/>
	<path class="st0" d="M233.9,509.4c-6.8-3.9-13.6-7.7-20.4-11.6c-0.9-0.5-4.3,4.4-7.6,10c-5.9-3.3-11.7-6.6-17.6-10
		c-1.9-1.1-16.1,23.7-14.3,24.8c6.8,3.9,13.6,7.7,20.4,11.6c0.9,0.5,4.3-4.4,7.6-10c5.9,3.3,11.7,6.6,17.6,10
		C221.5,535.2,235.8,510.4,233.9,509.4L233.9,509.4z"/>
	<path class="st0" d="M1309.2,430.9c-1.5-2.4-3.7-3.8-6.1-5.3c-11.8-7.7-24.5-14.3-37.8-19.2c-0.7-0.3-3,3.2-3,3.1
		c-2,2.7-3.8,5.6-5.4,8.5c-0.5,0.9-7.1,12.7-5.9,13.1c11.6,4.3,22.7,9.9,33.2,16.4c3.5,2.1,7.4,4.2,9.9,7.4c-2.6,0-5.2,0-7.8,0
		c-6.1,0-12.2,0-18.3,0c-10.5,0-21.1,0-31.6,0c-1,0-2.7,2.8-3,3.1c-2,2.7-3.8,5.6-5.4,8.5c-1.7,2.9-3.3,5.9-4.7,9
		c-0.2,0.4-1.7,4.1-1.2,4.1c19.7-0.1,39.5,0,59.2,0c1.7,0,3.1,0,4.6-0.7c1.7-0.8,3.2-2,4.5-3.3c2.8-2.8,5.2-6,7.3-9.4
		c4-6,7.7-12.5,10.6-19.1C1310.8,442,1312.5,436.1,1309.2,430.9L1309.2,430.9z"/>
	<path class="st0" d="M1074.4,378.4c6.8,3.9,13.6,7.7,20.4,11.6c1.9,1.1,16.1-23.7,14.3-24.8c-6.8-3.9-13.6-7.7-20.4-11.6
		C1086.8,352.5,1072.6,377.3,1074.4,378.4z"/>
	<path class="st0" d="M1227.1,422.2c0.2-0.4,1.4-4.2,1.2-4.1c-5.5,1.8-10.9,3.7-16.4,5.6c-12.4,2.2-25.6,1-37.9-0.6
		c-19.8-2.6-39.2-7.1-58.9-9.9c-10.2-1.4-20.4-2.5-30.7-2c-1,0-2.7,2.7-3,3.1c-2,2.7-3.8,5.6-5.4,8.5c-1.7,2.9-3.3,5.9-4.7,9
		c-0.2,0.4-1.7,4.1-1.2,4.1c19.8-0.9,39.7,3.3,59.1,6.8c1.7,0.3,3.3,0.6,4.9,0.9c-23.7,4.5-47.6,7.6-71.6,9.3
		c-31.6,2.2-63.4,2-94.9-0.8c0-2.3-0.8-4.8-1.3-7c-0.7-3.2-1.4-6.4-2.4-9.6c-1.5-5-3.3-10-5.8-14.7c-3.3-6.2-8-12.2-14.6-15.1
		c-4.9-2.1-10.3-2-15.2,0c-6,2.4-10.3,7-14.1,12.2c-5.4,7.6-10.3,16-13.8,24.7c-1.1,2.7-1.9,5.5-2,8.4c-0.8,14.3,12.8,20.7,25,22.5
		c9.8,1.4,19.6,2.5,29.5,3.4c-0.1,0.5-0.2,0.9-0.2,1.3c0,0.2-0.1,0.3-0.1,0.5c-0.6,0.5-1.1,1.1-1.7,1.6c-4.4,3.8-9.3,6.8-14.6,9.1
		c-16,6.8-34,7.5-51.1,6c-0.1,0-0.2,0-0.4,0.1l21.2,23.5c10.2-1.9,20-5.5,28.5-11.8c6.9-5,12.2-11.8,16.8-18.9
		c2.3-3.6,4.6-7.2,6.7-11c22.5,1.8,45.2,2.3,67.8,1.5c28.5-1,56.9-3.9,85-8.8c21.3-3.7,42.5-8.5,63.3-14.4
		c8.1-2.3,16.2-4.8,24.2-7.5c5.7-1,11.2-2.8,16.3-5.6c1.4-0.8,3.3-4.1,4-5.3c1.7-2.5,3.2-5.2,4.7-7.8
		C1224.6,427.2,1226,424.8,1227.1,422.2L1227.1,422.2z M937.6,448.8c-4.1-0.6-8.1-1.5-11.9-3.2c-5.3-2.3-10-6.2-11.9-11.8
		c-0.3-0.9-0.5-1.8-0.7-2.6c0.3-0.2,0.6-0.3,0.9-0.5c5.5-2.3,11.7-2,17,0.9c7.1,3.9,11.7,11.1,14.9,18.4
		C943.1,449.5,940.4,449.2,937.6,448.8L937.6,448.8z"/>
	<path class="st0" d="M502.6,424.2c-2.2-4-5.1-8-8.6-11c-1-0.8-7.8,10.7-8.4,11.7c-1.7,2.9-3.4,5.9-4.7,9c-0.3,0.6-1.9,3.6-1.2,4.1
		c7.7,6.5,12.5,16.8,13.8,26.6c-0.2,1.2-0.5,2.3-0.9,3.5c0,0.1,0,0.1,0,0.2c0,0.1,0,0.1-0.1,0.2c-0.2,0.8-0.5,1.5-0.8,2.3
		c-0.2,0.7-0.5,1.5-0.8,2.2c-0.1,0.2-0.2,0.4-0.2,0.6c-0.4,0.5-0.8,1-1.2,1.4c-0.4,0.5-0.8,1-1.3,1.5c-0.2,0.2-0.4,0.4-0.6,0.6h0
		c-1.1,1.1-2.3,2.3-3.5,3.4c-5.3,4.8-11.3,8.6-17.8,11.4c-12.8,5.4-26.7,6.6-40.5,5.5c-0.1,0-0.3,0-0.4,0.1l19.5,21.7
		c3-0.9,5.9-2,8.8-3.2c10.1-4.5,18.8-11.6,25.7-20.1c9.4-11.5,17.2-24.9,23-38.6c2.1-4.9,4.6-10.4,5.3-15.8c0.2-1.5-0.2-3.2-0.5-4.7
		C506.4,432.4,504.8,428.1,502.6,424.2L502.6,424.2z M487.6,477C488.2,476.4,487.8,476.8,487.6,477L487.6,477z"/>
	<path class="st0" d="M801.6,449c0-0.1,0.1-0.2,0.1-0.3c0,0.1-0.1,0.1-0.1,0.2L801.6,449L801.6,449z"/>
	<path class="st0" d="M874.8,422c-1.9-4.2-3.9-8.4-6.2-12.3c-0.3-0.5-2.8,2.9-3,3.2c-2,2.7-3.7,5.6-5.4,8.5c-1.7,2.9-3.3,5.9-4.7,9
		c-0.4,0.9-1.8,3.2-1.2,4.1c2.2,3.8,4.1,7.7,5.9,11.6c3.2,6.9,6.1,14.2,7,21.8c0.2,1.9,0.2,3.7-0.1,5.6c-0.1,0.9-0.4,1.8-0.6,2.7
		c0,0.1-0.2,0.6-0.2,0.7c0,0.1-0.1,0.2-0.1,0.3c0,0,0,0,0,0.1c-0.1,0.1-0.5,0.6-0.7,0.7c-0.7,0.7-1.4,1.4-2.2,2.1
		c-3.3,3-7.1,5.5-11.2,7.3c-10.4,4.2-21.6,2.9-31.5-2.1c-9.5-4.8-19.5-12-21.1-23.3c-0.3-2.7-0.1-5.3,0.5-7.9
		c0.2-0.8,0.3-1.5,0.5-2.3l0-0.1c0.1-0.3,0.2-0.7,0.3-1c0.2-0.6,0.4-1.2,0.7-1.8c0,0.1-0.1,0.2-0.1,0.2c0.1-0.1,0.1-0.2,0.2-0.3
		l0.1-0.2c0.1-0.2,0.1-0.3,0.2-0.4l0,0l0-0.1c0,0.1-0.1,0.3-0.2,0.5c0.1-0.2,0.2-0.4,0.2-0.6c0,0,0-0.1,0-0.1
		c0.1-0.2,0.2-0.4,0.3-0.5c0.4-0.7,0.8-1.3,1.2-2c0.1-0.1,0.2-0.3,0.3-0.5c1.1-1.9,2.3-3.8,3.4-5.7c1.7-2.9,3.3-5.9,4.7-9
		c0-0.1,1.8-3.5,1.2-4.1c-0.7-0.7-6.9,9.2-8.2,11.3c-0.4,0.6-0.7,1.2-1.1,1.8c-1.4,2.4-2.9,4.8-4.2,7.2c-3.1,5.4-6.1,10.9-8.7,16.5
		c-3,6.4-6,13.6-5.8,20.9c0.2,7,3.5,13,8.6,17.7c6.7,6.2,15.8,11,24.8,12.6c15.3,2.8,29-5.2,38.4-16.8c8.1-9.9,14.8-21.5,20-33.1
		c2.7-5.9,5.5-12.5,4.9-19.1C881.1,437.1,878.1,429.4,874.8,422L874.8,422z M801.5,449C801.5,449,801.5,449,801.5,449
		C801,449.8,801.2,449.5,801.5,449z"/>
	<path class="st0" d="M865.6,412.9L865.6,412.9C865.6,412.9,865.6,412.9,865.6,412.9z"/>
	<path class="st0" d="M804.9,437.5L804.9,437.5l0.2-0.4L804.9,437.5z"/>
	<path class="st0" d="M804.9,437.5c-0.1,0.2-0.2,0.4-0.2,0.4C804,439,802.3,441.9,804.9,437.5z"/>
	<path class="st0" d="M816.5,402.7c6.8,3.9,13.6,7.7,20.4,11.6c1.9,1.1,16.1-23.7,14.3-24.8c-6.8-3.9-13.6-7.7-20.4-11.6
		C829,376.8,814.7,401.6,816.5,402.7z"/>
	<g>
		<path class="st0" d="M755.3,286.8c-2.5,1.7-4.5,5.5-6,7.9c-3,4.6-5.8,9.4-8.5,14.2c-3.4,6.2-6.8,12.4-10.2,18.6
			c-8.1,14.9-16.2,29.8-24.4,44.7c-9.8,18-19.7,36.1-29.5,54.1c-8.5,15.6-17,31.2-25.5,46.8c-4.1,7.6-8.3,15.1-12.4,22.7
			c-0.1,0.1-0.1,0.2-0.2,0.3c-2,3.6-4.2,7.6-5.6,11.6c-0.1,0.3-1.6,4,0.3,2.7c2.5-1.7,4.5-5.5,6-7.9c3-4.6,5.8-9.4,8.5-14.2
			c2.3-4.3,4.7-8.6,7-13c7.9,5.7,17.3,10.7,26.8,12.4c7.3,1.3,13.8-0.4,18.7-6.2c4.1-5,7.5-10.8,10.5-16.5c2.3-4.2,4.4-8.6,5.8-13.2
			c1.3-4.5,1.1-9,0-13.5c-1.6-6.5-4.8-12.6-8.1-18.4c-3.9-6.8-8.2-13.3-12.6-19.7c5.3-9.8,10.7-19.5,16-29.3
			c8.5-15.6,17-31.2,25.5-46.8c4.1-7.6,8.3-15.1,12.4-22.7c0.1-0.1,0.1-0.2,0.2-0.3c2-3.6,4.2-7.6,5.6-11.6
			C755.8,289.2,757.3,285.5,755.3,286.8L755.3,286.8z M687.7,460.6c-6-2.3-11.7-5.5-17-9.1c-0.6-0.4-1.3-0.9-1.9-1.3
			c4.5-8.2,8.9-16.4,13.4-24.6c4.8,7,9.5,14,13.5,21.5c2.8,5.1,5.5,10.6,6.8,16.4C697.6,463.8,692.3,462.4,687.7,460.6z"/>
		<path class="st0" d="M661.2,394.2c4.4,7.1,9,14.1,13.8,20.9c0.3,0.5,3.4-3.7,3-3.1c2-2.7,3.8-5.6,5.4-8.5c1.7-2.9,3.3-5.9,4.7-9
			c0.4-0.9,1.8-3.2,1.2-4.1c-7.2-10.5-14.2-21-20.3-32.2c-5.3-9.8-10-20.3-11.4-31.4c-0.3-2.9-0.4-5.9,0-8.8
			c0.1-1.1,0.3-2.2,0.6-3.4c1.3-2.3,2.4-4.7,3.2-7.2c0.3-0.8,1-2.2-0.2-1.8c-0.3,0.4-0.7,0.7-1,1.1c-1.1,1.3-2.1,2.7-3,4.2
			c-5.6,8.9-12.2,18.8-13.9,29.4c-0.9,5.6-0.2,11.5,1,17C647.4,370.5,654.2,382.8,661.2,394.2L661.2,394.2z M658.7,312.8
			c0.1-0.2,0.1-0.3,0.1-0.3L658.7,312.8z"/>
	</g>
</g>
<g>
	<path class="st0" d="M649.7,120.7c0.4,0.6,3.7-4,3.3-3.4c2.2-3,4.1-6.2,6-9.4c1.8-3.2,3.7-6.5,5.2-9.9c0.4-0.9,2-3.6,1.3-4.6
		c-7.9-11.5-15.7-23.2-22.3-35.5c-5.8-10.8-11-22.3-12.6-34.6c-0.3-3.2-0.4-6.5,0-9.7c0.2-1.2,0.4-2.5,0.7-3.7
		c1.4-2.6,2.6-5.2,3.6-7.9c0.3-0.9,1.1-2.4-0.3-2c-0.4,0.4-0.8,0.8-1.1,1.2c-1.2,1.5-2.3,3-3.3,4.6c-6.2,9.8-13.4,20.7-15.3,32.4
		c-1,6.2-0.3,12.6,1.1,18.7c3.4,14.5,10.9,28,18.6,40.7C639.3,105.5,644.5,113.1,649.7,120.7L649.7,120.7z M631.9,7.6
		c0,0.1-0.1,0.2-0.2,0.3C631.8,7.8,631.9,7.6,631.9,7.6z"/>
	<path class="st0" d="M695.7,146.3c-1.8-7.2-5.3-13.9-8.9-20.3c-4.7-8.1-9.9-15.9-15.2-23.6c-0.4-0.6-3.7,4-3.3,3.4
		c-2.2,3-4.1,6.2-6,9.4c-1.8,3.2-3.7,6.5-5.2,9.9c-0.4,0.9-2,3.6-1.3,4.6c5.9,8.5,11.7,17.1,16.7,26.2c3.1,5.7,6,11.7,7.5,18
		c-5.5,0.4-11.3-1.2-16.3-3.1c-6.6-2.6-12.9-6.1-18.8-10c-1.3-0.9-2.5-1.7-3.8-2.6c-1.2-0.9-8.6,11.7-9.2,12.9
		c-1.8,3.2-3.7,6.5-5.2,9.9c-0.3,0.7-2.1,4-1.3,4.6c9.2,6.9,20.4,13.3,31.8,15.3c8,1.4,15.2-0.4,20.6-6.8
		c4.6-5.5,8.2-11.9,11.6-18.2c2.5-4.7,4.9-9.4,6.4-14.6C697.1,156.2,697,151.3,695.7,146.3L695.7,146.3z"/>
</g>
<g>
	<polygon class="st0" points="936.6,633.9 944,645 944,702 958.2,702 958.2,645 958.2,633.9 944,633.9 	"/>
	<path class="st0" d="M368.5,634.4c-5.8-1.7-11.8-2-17.8-1.1c-10.2,1.5-17.8,7-22.9,15.8c-3.4,5.9-4.7,12.3-4.8,20
		c0,7.1,2,14.5,6.7,21.1c4,5.6,9.3,9.6,15.9,11.6c5.8,1.8,11.6,2.1,17.6,1.2c5.7-0.8,10.9-2.8,15.4-6.4c6.3-5.2,10.3-11.8,11.8-19.8
		c1.9-9.6,1-18.9-3.9-27.6C382.5,641.9,376.6,636.8,368.5,634.4L368.5,634.4z M374.2,684.7c-1.3,4.3-3.3,8.3-6.9,11.4
		c-6.3,5.5-15.2,5.1-21-0.9c-3.5-3.6-5.6-7.8-6.6-12.5c-2.2-9.7-2.2-19.4,0-29.1c0.9-4.1,2.6-7.8,5.3-11.1c2.2-2.7,4.9-4.9,8.5-5.8
		c5.9-1.4,10.8,0.3,14.8,4.4c3,3,4.8,6.7,5.9,10.7c1.4,4.8,2,10,2,16.7C376.2,673.7,375.9,679.3,374.2,684.7L374.2,684.7z"/>
	<path class="st0" d="M307.8,654c0-2.3-0.1-4.6-0.5-6.8c-1.1-6-4.5-10.2-10.1-12.5c-5.9-2.4-11.9-2.3-17.9-0.2
		c-9.6,3.5-15.5,11.9-15.5,11.9v-44.6h-21.5l7.3,11V702h14.2v-51.3c0,0,8.3-11,18.6-11c4.7,0,8.1,2.8,10,7.2c1,2.5,1.3,5.2,1.3,7.9
		c0,13.5,0,33.6,0,47.2h14.1C307.8,688.2,307.8,667.8,307.8,654L307.8,654z"/>
	<path class="st0" d="M543.5,654c0-2.3-0.1-4.6-0.5-6.8c-1.1-6-4.5-10.2-10.1-12.5c-5.9-2.4-11.9-2.3-17.9-0.2
		c-9.6,3.5-15.5,11.9-15.5,11.9v-12.4H478l7.3,11V702h14.2v-51.3c0,0,8.3-11,18.6-11c4.7,0,8.1,2.8,10,7.2c1,2.5,1.3,5.2,1.3,7.9
		c0,13.5,0,33.6,0,47.2h14.2C543.5,688.2,543.5,667.8,543.5,654L543.5,654z"/>
	<polygon class="st0" points="194.4,662.3 205,651.7 220.8,656.8 223.3,643.5 212.6,641 202.6,651 202.6,651 184.4,669.1 
		184.4,612.7 184.4,601.7 170.2,601.7 162.9,601.7 170.2,612.7 170.2,702 184.4,702 184.4,672.3 192.7,664 217,702 231.2,702 
		204.5,660.3 	"/>
	<polygon class="st0" points="683.3,601.7 690.6,612.7 690.6,702 704.8,702 704.8,612.7 704.8,601.7 690.6,601.7 	"/>
	<path class="st0" d="M633,601.7h-17.8l10,10.2L588.4,702h3.7l19.8-48.7v0.4h31.8l19.7,48.3h14.2l-40.9-100.3L633,601.7L633,601.7z
		 M642.6,650.9h-29.7l14.8-36.4L642.6,650.9L642.6,650.9z"/>
	<path class="st0" d="M1119.3,614.3l-14.2,10.5v9.7h-9.5v2.8h9.5v37.9l0,0c0,2.9,0,5.8,0,8.7c0,1.8,0.1,3.6,0.3,5.4
		c0.8,5.8,3.8,10.2,9.3,12.5c6.7,2.8,13.2,1.8,19.2-2.3c1.6-1.1,3-2.5,4.1-4.2c-1.6,0.8-3.3,1.5-5.1,1.8c-6.1,1-11.3-2.4-12.9-8.3
		c-0.6-2.2-0.7-4.4-0.7-6.6c0-4.1,0-8.3,0-12.4l0,0v-32.4h20.2v-2.8h-20.2L1119.3,614.3L1119.3,614.3z"/>
	<path class="st0" d="M919,654c0-2.3-0.1-4.6-0.5-6.8c-1.1-6-4.5-10.2-10.1-12.5c-5.9-2.4-11.9-2.3-17.9-0.2
		c-9.7,3.5-15.5,11.9-15.5,11.9v4.4c0,0,8.3-11,18.6-11c4.7,0,8.1,2.8,10,7.2c1,2.5,1.3,5.2,1.3,7.9c0,13.5,0,33.6,0,47.2H919
		C919,688.2,919,667.8,919,654L919,654z"/>
	<path class="st0" d="M875,654c0-2.3-0.1-4.6-0.5-6.8c-1.1-6-4.5-10.2-10.1-12.5c-5.9-2.4-11.9-2.3-17.9-0.2
		c-9.7,3.5-15.5,11.9-15.5,11.9v-12.4h-21.5l7.3,11V702h14.2v-51.3c0,0,8.3-11,18.6-11c4.7,0,8.1,2.8,10,7.2c1,2.5,1.3,5.2,1.3,7.9
		c0,13.5,0,33.6,0,47.2H875C875,688.2,875,667.8,875,654L875,654z"/>
	<path class="st0" d="M1084.1,654.4L1084.1,654.4L1084.1,654.4c0-1.6,0-3.1-0.1-4.7c-0.4-8-5.8-14.3-13.6-16.1c-5-1.2-10-0.8-15,0.2
		c-7.1,1.5-21.4,7-21.7,7.5c2.3,3.5,4.6,7,7,10.7c0.9-1,8.2-8.1,11.3-11.3c1.9-1.9,3.7-3.9,6.2-5c4.3-1.9,9,0.1,10.7,4.5
		c0.6,1.6,0.9,3.3,0.9,5c0,4.9,0,7.8,0,12.7c-13.8,2.1-24.5,7.5-31.2,12.3c-5.3,3.9-8.9,8.9-9.2,15.7c-0.2,5.6,1.6,10.3,6.3,13.7
		c4.9,3.5,10.4,4.3,16.3,3.5c10.1-1.6,16.9-10.3,17.8-11.5V702h21.5l-7.3-11L1084.1,654.4L1084.1,654.4z M1069,689.8
		c-2.6,3.5-5.7,6.2-10.1,7c-7.1,1.4-13.6-1.7-15.1-8.8c-1.4-6.7,0.6-12.4,5.2-17.3c8.6-8.6,20.9-10,20.9-10s0,17.4,0,26
		C1069.9,688,1069.6,688.9,1069,689.8L1069,689.8z"/>
	<path class="st0" d="M1241.7,691v-36.6l0,0v-0.1c0-1.5,0-3-0.1-4.6c-0.4-8-5.8-14.3-13.6-16.1c-5-1.2-10-0.8-15,0.2
		c-7.1,1.5-21.4,7-21.7,7.5c2.3,3.5,4.6,7,7,10.7c0.9-1,8.2-8.1,11.3-11.3c1.9-1.9,3.7-3.9,6.2-5c4.3-1.9,9,0.1,10.7,4.5
		c0.6,1.6,0.9,3.3,0.9,5c0,4.9,0,7.8,0,12.7c-13.8,2.1-24.5,7.5-31.2,12.3c-5.3,3.9-8.9,8.9-9.2,15.7c-0.2,5.6,1.6,10.3,6.3,13.7
		c4.9,3.5,10.4,4.3,16.3,3.5c10.1-1.6,16.9-10.3,17.8-11.5V702h21.5L1241.7,691L1241.7,691z M1226.6,689.8c-2.6,3.5-5.7,6.2-10.1,7
		c-7.1,1.4-13.6-1.7-15.1-8.8c-1.4-6.7,0.6-12.4,5.2-17.3c8.6-8.6,20.9-10,20.9-10s0,17.4,0,26
		C1227.5,688,1227.2,688.9,1226.6,689.8L1226.6,689.8z"/>
	<path class="st0" d="M951.1,605.1L951.1,605.1c-4.9,0-8.9,4-8.9,8.9l0,0c0,4.9,4,8.9,8.9,8.9l0,0c4.9,0,8.9-4,8.9-8.9l0,0
		C960,609.1,956,605.1,951.1,605.1z"/>
	<polygon class="st0" points="1150.5,633.9 1157.8,645 1157.8,702 1172,702 1172,645 1172,633.9 1157.8,633.9 	"/>
	<path class="st0" d="M1164.9,605.1c-4.9,0-8.9,4-8.9,8.9l0,0c0,4.9,4,8.9,8.9,8.9s8.9-4,8.9-8.9l0,0
		C1173.8,609.1,1169.8,605.1,1164.9,605.1z"/>
	<path class="st0" d="M446.5,634.4c-5.8-1.7-11.8-2-17.8-1.1c-10.2,1.5-17.8,7-22.9,15.8c-3.4,5.9-4.7,12.3-4.8,20
		c0,7.1,2,14.5,6.7,21.1c4,5.6,9.3,9.6,15.9,11.6c5.8,1.8,11.6,2.1,17.6,1.2c5.7-0.8,10.9-2.8,15.4-6.4c6.3-5.2,10.3-11.8,11.8-19.8
		c1.9-9.6,1-18.9-3.9-27.6C460.5,641.9,454.6,636.8,446.5,634.4L446.5,634.4z M452.3,684.7c-1.3,4.3-3.3,8.3-6.9,11.4
		c-6.3,5.5-15.2,5.1-21-0.9c-3.5-3.6-5.6-7.8-6.6-12.5c-2.2-9.7-2.2-19.4,0-29.1c0.9-4.1,2.6-7.8,5.3-11.1c2.2-2.7,4.9-4.9,8.5-5.8
		c5.9-1.4,10.8,0.3,14.8,4.4c3,3,4.8,6.7,5.9,10.7c1.4,4.8,2,10,2,16.7C454.2,673.7,453.9,679.3,452.3,684.7L452.3,684.7z"/>
	<path class="st0" d="M131.8,612.3c-8.5-7-18.4-10.3-29.2-10.5c-4.3-0.1-14.8-0.1-19.1-0.1H62l7.3,11V702h14.2c2.5,0,11.2,0,13.7,0
		c4.5,0,8.9-0.2,13.3-1c10-1.8,18.6-6.2,25.6-13.6c6.6-6.9,10.4-15.2,12-24.6c1.6-9.1,1.3-18.1-1.1-27
		C144.5,626.4,139.4,618.5,131.8,612.3L131.8,612.3z M132.6,660.6c-0.6,8.2-2.3,14.2-6.1,21.6c-2.8,5.5-6.7,10.1-12.2,13
		c-4.3,2.3-9,3.5-13.8,3.6c-3.6,0.1-13.4,0.1-17,0.1v-94.1c3.7,0,13.6,0,17.2,0.1c4.8,0.2,9.4,1.3,13.6,3.6c5.4,3,9.2,7.5,12.1,12.9
		c3,5.8,4.6,11,5.5,17.4C133.1,646.4,133.2,653,132.6,660.6L132.6,660.6z"/>
	<polygon class="st0" points="1003.2,641.9 997.9,647.2 997.9,645 997.9,633.9 983.7,633.9 976.3,633.9 983.7,645 983.7,702 
		997.9,702 997.9,650.4 1005.6,642.7 1021.5,647.8 1024,634.5 1013.2,631.9 	"/>
	<polygon class="st0" points="747.3,699.2 747.3,653.7 788.9,653.7 788.9,650.9 747.3,650.9 747.3,612.7 747.3,604.5 781.3,604.5 
		792.7,623.2 792.7,601.7 785.7,601.7 779.6,601.7 747.3,601.7 747.3,601.7 733.1,601.7 725.8,601.7 733.1,612.7 733.1,702 
		747.3,702 747.3,702 785.2,702 788.9,702 798.3,702 798.3,680.4 786.8,699.2 	"/>
</g>
</svg>
