<svg width="32" height="32" viewBox="0 0 32 32" fill="none" xmlns="http://www.w3.org/2000/svg">
<path d="M20.3333 12.0028L21.3333 12.0021C21.333 11.4501 20.8854 11.0028 20.3333 11.0028C19.7813 11.0028 19.3337 11.4501 19.3333 12.0021L20.3333 12.0028ZM12.6667 12C12.6667 11.4477 12.219 11 11.6667 11C11.1144 11 10.6667 11.4477 10.6667 12H12.6667ZM6 7C3.79086 7 2 8.79086 2 11H4C4 9.89543 4.89543 9 6 9V7ZM11.6667 7H6V9H11.6667V7ZM20.3333 7H11.6667V9H20.3333V7ZM26 7H20.3333V9H26V7ZM30 11C30 8.79086 28.2091 7 26 7V9C27.1046 9 28 9.89543 28 11H30ZM30 12V11H28V12H30ZM25 17C27.7614 17 30 14.7614 30 12H28C28 13.6569 26.6569 15 25 15V17ZM24.3333 17H25V15H24.3333V17ZM19.3333 12.0035C19.3352 14.7633 21.5731 17 24.3333 17V15C22.6772 15 21.3345 13.658 21.3333 12.0021L19.3333 12.0035ZM16.3333 17C19.0936 17 21.3314 14.7633 21.3333 12.0035L19.3333 12.0021C19.3322 13.658 17.9895 15 16.3333 15V17ZM15.6667 17H16.3333V15H15.6667V17ZM10.6667 12C10.6667 14.7614 12.9052 17 15.6667 17V15C14.0098 15 12.6667 13.6569 12.6667 12H10.6667ZM7.66667 17C10.4281 17 12.6667 14.7614 12.6667 12H10.6667C10.6667 13.6569 9.32352 15 7.66667 15V17ZM7 17H7.66667V15H7V17ZM2 12C2 14.7614 4.23857 17 7 17V15C5.34315 15 4 13.6569 4 12H2ZM2 11V12H4V11H2Z" fill="#2E2727"/>
<path d="M27 8V5C27 3.89543 26.1046 3 25 3H7C5.89543 3 5 3.89543 5 5V8" stroke="#2E2727" stroke-width="2" stroke-linecap="round" stroke-linejoin="round"/>
<path d="M5 15.5L5 27C5 28.1046 5.89543 29 7 29L25 29C26.1046 29 27 28.1046 27 27L27 15.5" stroke="#2E2727" stroke-width="2" stroke-linecap="round" stroke-linejoin="round"/>
</svg>
