<?xml version="1.0" encoding="utf-8"?>
<!-- Generator: Adobe Illustrator 26.3.1, SVG Export Plug-In . SVG Version: 6.00 Build 0)  -->
<svg version="1.1" id="Layer_1" xmlns="http://www.w3.org/2000/svg" xmlns:xlink="http://www.w3.org/1999/xlink" x="0px" y="0px"
	 viewBox="0 0 1000 1000" style="enable-background:new 0 0 1000 1000;" xml:space="preserve">
<style type="text/css">
	.st0{fill:#fff;}
	.st1{display:none;}
	.st2{display:inline;}
	.st3{fill:#2e2727;}
</style>
<path class="st0" d="M220.8,929h558.3c82.8,0,149.8-67.1,149.8-149.8V220.8C929,138.1,861.9,71,779.2,71H220.8
	C138.1,71,71,138.1,71,220.8v558.3C71,861.9,138.1,929,220.8,929z"/>
<g class="st1">
	<g class="st2">
		<path class="st3" d="M379.7,763.5c244.7,0,378.5-202.7,378.5-378.5c0-5.8-0.1-11.5-0.4-17.2c26-18.8,48.6-42.2,66.4-68.9
			c-23.8,10.6-49.5,17.7-76.4,20.9c27.5-16.5,48.6-42.5,58.5-73.6c-25.7,15.2-54.2,26.3-84.5,32.3c-24.3-25.9-58.8-42-97.1-42
			c-73.5,0-133,59.6-133,133c0,10.4,1.2,20.6,3.5,30.3c-110.6-5.6-208.6-58.5-274.2-139c-11.4,19.7-18,42.5-18,66.9
			c0,46.2,23.5,86.9,59.2,110.7c-21.8-0.7-42.3-6.7-60.2-16.6c0,0.6,0,1.1,0,1.7c0,64.4,45.9,118.2,106.7,130.4
			c-11.2,3-22.9,4.7-35.1,4.7c-8.6,0-16.9-0.8-25-2.4c16.9,52.8,66,91.3,124.3,92.4c-45.5,35.7-102.9,56.9-165.2,56.9
			c-10.7,0-21.3-0.6-31.7-1.8C234.7,741.4,304.6,763.5,379.7,763.5"/>
	</g>
</g>
<g>
	<g>
		<path class="st3" d="M645.1,209.9H354.9c-79.8,0-145.1,65.3-145.1,145.1v290.1c0,79.8,65.3,145,145.1,145h290.1
			c79.8,0,145-65.3,145-145V354.9C790.1,275.2,724.8,209.9,645.1,209.9z M500,620.9c-66.8,0-120.9-54.1-120.9-120.9
			c0-66.8,54.1-120.9,120.9-120.9c66.7,0,120.9,54.1,120.9,120.9C620.9,566.7,566.7,620.9,500,620.9z M657.1,379.1
			c-20,0-36.3-16.2-36.3-36.3c0-20,16.2-36.3,36.3-36.3c20,0,36.3,16.2,36.3,36.3C693.4,362.9,677.2,379.1,657.1,379.1z"/>
	</g>
</g>
</svg>
