<svg width="32" height="32" viewBox="0 0 32 32" fill="none" xmlns="http://www.w3.org/2000/svg">
<ellipse cx="16" cy="16" rx="5" ry="13" stroke="#2E2727" stroke-width="2" stroke-linecap="round" stroke-linejoin="round"/>
<path d="M4 16H29" stroke="#2E2727" stroke-width="2" stroke-linecap="round" stroke-linejoin="round"/>
<path d="M28 16C28 22.6274 22.6274 28 16 28V30C23.732 30 30 23.732 30 16H28ZM16 28C9.37258 28 4 22.6274 4 16H2C2 23.732 8.26801 30 16 30V28ZM4 16C4 9.37258 9.37258 4 16 4V2C8.26801 2 2 8.26801 2 16H4ZM16 4C22.6274 4 28 9.37258 28 16H30C30 8.26801 23.732 2 16 2V4Z" fill="#2E2727"/>
</svg>
