<?xml version="1.0" encoding="UTF-8"?><svg id="Logo" xmlns="http://www.w3.org/2000/svg" viewBox="0 0 148.05 361.46"><defs><style>.cls-1{fill:#2E2727;}</style></defs><path class="cls-1" d="M63.5,216.9c.7,1.02,6.66-7.25,5.88-6.18,3.91-5.36,7.44-11.17,10.72-16.92,3.3-5.78,6.64-11.63,9.29-17.75,.73-1.69,3.6-6.44,2.41-8.18-14.2-20.69-28.19-41.62-40.08-63.75-10.41-19.36-19.75-40.15-22.58-62.13-.61-5.81-.74-11.66-.03-17.47,.27-2.24,.66-4.46,1.18-6.65,2.49-4.61,4.71-9.33,6.4-14.19,.56-1.63,2.01-4.29-.46-3.56-.67,.71-1.34,1.42-2.01,2.13-2.13,2.66-4.11,5.42-5.96,8.29C17.1,28.07,4.16,47.75,.82,68.79c-1.76,11.13-.5,22.65,2.04,33.56,6.09,26.15,19.52,50.39,33.43,73.1,8.63,14.1,17.86,27.82,27.21,41.44ZM31.57,13.73c-.1,.23-.18,.42-.26,.61,.12-.36,.23-.62,.26-.61Z"/><path class="cls-1" d="M146.23,262.78c-3.22-12.9-9.46-24.98-16.04-36.45-8.37-14.6-17.82-28.55-27.33-42.42-.7-1.02-6.66,7.25-5.88,6.18-3.91,5.36-7.44,11.17-10.72,16.92-3.3,5.78-6.64,11.63-9.29,17.75-.73,1.69-3.6,6.44-2.41,8.18,10.52,15.35,21.03,30.81,29.98,47.15,5.57,10.18,10.87,20.98,13.54,32.37-9.93,.78-20.28-2.14-29.36-5.65-11.89-4.59-23.15-10.89-33.74-17.95-2.28-1.52-4.55-3.07-6.74-4.72-2.22-1.68-15.46,21.1-16.6,23.09-3.3,5.78-6.64,11.63-9.29,17.75-.53,1.22-3.76,7.16-2.41,8.18,16.49,12.46,36.63,23.84,57.12,27.49,14.4,2.57,27.4-.74,36.94-12.23,8.19-9.87,14.75-21.41,20.79-32.66,4.51-8.4,8.76-16.98,11.42-26.17,2.6-8.95,2.26-17.79,.01-26.81Z"/></svg>