<svg width="32" height="32" viewBox="0 0 32 32" fill="none" xmlns="http://www.w3.org/2000/svg">
<path d="M10.5 16C10.5 13.7909 12.2909 12 14.5 12H17.5C19.7091 12 21.5 13.7909 21.5 16V27C21.5 28.1046 20.6046 29 19.5 29H12.5C11.3954 29 10.5 28.1046 10.5 27V16Z" stroke="#2E2727" stroke-width="2" stroke-linecap="round" stroke-linejoin="round"/>
<path d="M20 7C20 4.79086 18.2091 3 16 3C13.7909 3 12 4.79086 12 7" stroke="#2E2727" stroke-width="2" stroke-linecap="round" stroke-linejoin="round"/>
<path d="M12 7C14.5 8.5 14 11 12.5 12.5" stroke="#2E2727" stroke-width="2" stroke-linecap="round" stroke-linejoin="round"/>
<path d="M20 7C17.5 8.5 18 11 19.5 12.5" stroke="#2E2727" stroke-width="2" stroke-linecap="round" stroke-linejoin="round"/>
</svg>
