<?xml version="1.0" encoding="utf-8"?>
<!-- Generator: Adobe Illustrator 26.3.1, SVG Export Plug-In . SVG Version: 6.00 Build 0)  -->
<svg version="1.1" id="Layer_1" xmlns="http://www.w3.org/2000/svg" xmlns:xlink="http://www.w3.org/1999/xlink" x="0px" y="0px"
	 viewBox="0 0 1000 1000" style="enable-background:new 0 0 1000 1000;" xml:space="preserve">
<style type="text/css">
	.st0{fill:#fff;}
	.st1{display:none;}
	.st2{display:inline;}
	.st3{fill:#2e2727;}
</style>
<path class="st0" d="M220.8,929h558.3c82.8,0,149.8-67.1,149.8-149.8V220.8C929,138.1,861.9,71,779.2,71H220.8
	C138.1,71,71,138.1,71,220.8v558.3C71,861.9,138.1,929,220.8,929z"/>
<g class="st1">
	<g class="st2">
		<path class="st3" d="M379.7,763.5c244.7,0,378.5-202.7,378.5-378.5c0-5.8-0.1-11.5-0.4-17.2c26-18.8,48.6-42.2,66.4-68.9
			c-23.8,10.6-49.5,17.7-76.4,20.9c27.5-16.5,48.6-42.5,58.5-73.6c-25.7,15.2-54.2,26.3-84.5,32.3c-24.3-25.9-58.8-42-97.1-42
			c-73.5,0-133,59.6-133,133c0,10.4,1.2,20.6,3.5,30.3c-110.6-5.6-208.6-58.5-274.2-139c-11.4,19.7-18,42.5-18,66.9
			c0,46.2,23.5,86.9,59.2,110.7c-21.8-0.7-42.3-6.7-60.2-16.6c0,0.6,0,1.1,0,1.7c0,64.4,45.9,118.2,106.7,130.4
			c-11.2,3-22.9,4.7-35.1,4.7c-8.6,0-16.9-0.8-25-2.4c16.9,52.8,66,91.3,124.3,92.4c-45.5,35.7-102.9,56.9-165.2,56.9
			c-10.7,0-21.3-0.6-31.7-1.8C234.7,741.4,304.6,763.5,379.7,763.5"/>
	</g>
</g>
<g>
	<path class="st3" d="M768.6,347.2c-35,0-67.3-11.6-93.2-31.1c-29.7-22.4-51.1-55.3-58.6-93.2c-1.9-9.4-2.9-19-3-28.9h-100V467
		l-0.1,149.6c0,40-26,73.9-62.2,85.8c-10.5,3.5-21.8,5.1-33.6,4.5c-15-0.8-29.1-5.4-41.4-12.7c-26.1-15.6-43.7-43.9-44.2-76.2
		c-0.8-50.6,40.1-91.8,90.7-91.8c10,0,19.6,1.6,28.5,4.6v-74.7v-26.8c-9.5-1.4-19.1-2.1-28.8-2.1c-55.3,0-107,23-144,64.4
		c-28,31.3-44.7,71.2-47.3,113.1c-3.4,55,16.7,107.3,55.8,145.9c5.7,5.7,11.8,10.9,18.1,15.8c33.5,25.8,74.4,39.7,117.5,39.7
		c9.7,0,19.4-0.7,28.8-2.1c40.3-6,77.4-24.4,106.7-53.4c36-35.6,55.9-82.9,56.1-133.2L613.9,394c17.2,13.3,36,24.2,56.1,32.7
		c31.4,13.2,64.6,19.9,98.8,19.9v-72.6v-26.9C769,347.2,768.7,347.2,768.6,347.2L768.6,347.2z"/>
</g>
</svg>
