<svg width="32" height="32" viewBox="0 0 32 32" fill="none" xmlns="http://www.w3.org/2000/svg">
<path d="M25.9745 14.2069C25.9745 14.1155 25.9745 14.0285 25.9745 13.9327C25.9915 13.7093 26 13.483 26 13.2538C26 10.5343 24.9464 7.92622 23.0711 6.00326C21.1957 4.08031 18.6522 3 16 3C13.3478 3 10.8043 4.08031 8.92894 6.00326C7.05357 7.92622 6 10.5343 6 13.2538C6 13.4859 6.00849 13.7122 6.02547 13.9327C6.02547 14.0285 6.02547 14.1155 6.02547 14.2069C6.02547 14.2983 6.02547 14.381 6.05518 14.4637C6.90408 22.5239 15.983 29 15.983 29C15.983 29 25.0535 22.5239 25.9109 14.4637C25.9576 14.381 25.966 14.2939 25.9745 14.2069Z" stroke="#2E2727" stroke-width="2" stroke-linecap="round" stroke-linejoin="round"/>
<circle cx="16" cy="13" r="4" stroke="#2E2727" stroke-width="2" stroke-linecap="round" stroke-linejoin="round"/>
</svg>
