<?xml version="1.0" encoding="utf-8"?>
<!-- Generator: Adobe Illustrator 26.3.1, SVG Export Plug-In . SVG Version: 6.00 Build 0)  -->
<svg version="1.1" id="Layer_1" xmlns="http://www.w3.org/2000/svg" xmlns:xlink="http://www.w3.org/1999/xlink" x="0px" y="0px"
	 viewBox="0 0 1000 1000" style="enable-background:new 0 0 1000 1000;" xml:space="preserve">
<style type="text/css">
	.st0{fill:#fff;}
	.st1{display:none;}
	.st2{display:inline;}
	.st3{fill:#2e2727;}
	.st4{fill:#2e2727;}
</style>
<path class="st0" d="M220.8,929h558.3c82.8,0,149.8-67.1,149.8-149.8V220.8C929,138.1,861.9,71,779.2,71H220.8
	C138.1,71,71,138.1,71,220.8v558.3C71,861.9,138.1,929,220.8,929z"/>
<g class="st1">
	<g class="st2">
		<path class="st3" d="M666.3,385.4c-0.1,13.4-0.8,26.7-1.8,40c-0.2,2.3-0.2,4.5-0.3,6.8c-0.1,4.9,2.8,7,7.7,6.5
			c1.8-0.2,3.6-0.6,5.3-1.2c4.9-1.7,9.7-3.5,14.5-5.3c8.1-3.1,16.2-6.1,24.6-8.1c5.7-1.3,11.3-2,17.1-0.7c13.1,3,19.9,16,14.8,28.5
			c-1.3,3.3-3.3,6.1-5.7,8.7c-3.4,3.8-7.2,6.9-11.4,9.8c-4.9,3.3-9.9,6.5-14.8,9.8c-8.2,5.4-16.5,10.8-24.7,16.3
			c-3.4,2.3-6.7,4.7-10,7.2c-1.8,1.4-3.5,3-5,4.7c-3.1,3.4-4.5,7.5-4.2,12.1c0.3,4.4,1.1,8.7,2.3,13c3.9,13.6,9.9,26.4,17.1,38.5
			c13.4,22.4,30.7,41.4,50.9,57.8c17.1,13.9,35.8,25.4,55.7,35.1c1.8,0.9,3.5,1.8,5.2,2.8c1.3,0.8,2.4,1.8,3.3,3.1
			c1.3,1.9,1.5,3.9,0.4,6c-1,1.8-2.4,3.1-3.9,4.4c-2.2,1.8-4.7,3.3-7.3,4.7c-11.2,6.1-23.2,10.5-35.5,13.8
			c-5.3,1.4-10.5,2.9-15.7,4.5c-3.6,1.1-7.1,2.7-10.4,4.4c-5.7,2.9-8.9,7.6-10.1,13.8c-0.7,3.4-1.1,6.9-1.7,10.3
			c-1.6,8.6-4.7,11.8-13.2,13.3c-3,0.5-6,0.8-9,1c-7.6,0.4-15.2,0.6-22.7,1c-17.2,1-34.1,3.6-50.5,9c-6.9,2.3-13.6,5.2-19.9,8.9
			c-6.7,3.8-13.3,7.9-19.9,11.9c-10.5,6.4-21.2,12.4-32.7,16.9c-12.8,5-26,7.9-39.7,9.2c-11.5,1-23.1,0.9-34.5-0.4
			c-17.2-1.9-33.5-6.9-48.9-14.8c-7.2-3.7-14.1-7.8-20.9-12c-5-3.1-10.1-6.1-15.2-9.2c-12.1-7.2-25.2-11.8-38.9-14.8
			c-12.5-2.7-25.1-4.2-37.9-4.7c-6.7-0.3-13.3-0.5-20-0.9c-3.8-0.2-7.5-0.7-11.2-1.7c-5.2-1.4-8.5-4.5-9.6-9.8c-0.6-3-1.1-6-1.6-9
			c-0.1-0.6-0.1-1.2-0.2-1.8c-1.1-7.9-5-13.8-12.5-17.1c-4.6-2.1-9.3-3.8-14.1-5.1c-8.3-2.3-16.7-4.4-24.9-7.3
			c-7.1-2.6-14.1-5.6-20.7-9.2c-2-1.1-3.9-2.3-5.8-3.6c-1.2-0.8-2.4-1.8-3.5-2.9c-3.9-4-3.6-7.7,0.9-11.1c2.2-1.7,4.7-2.8,7.1-4
			c17.3-8.5,33.8-18.5,49.1-30.3c21.8-16.8,40.5-36.5,55-60.1c7.7-12.6,14-25.8,18.2-40c1.3-4.5,2.2-9.1,2.4-13.9
			c0.2-4.7-1.4-8.6-4.5-12c-1.8-2-3.9-3.8-6.1-5.4c-6.3-4.7-12.9-9.1-19.5-13.4c-8.4-5.5-16.8-10.9-25.2-16.4
			c-4.2-2.7-8.2-5.7-11.9-9.2c-2.7-2.5-5-5.3-6.9-8.4c-4-6.6-4.2-13.5-1.3-20.5c2.1-4.8,5.6-8.2,10.5-10.1
			c5.4-2.1,10.9-2.3,16.6-1.4c6.6,1.1,13,3.1,19.2,5.4c6.4,2.3,12.8,4.8,19.1,7.2c3,1.1,6,2.2,9.1,2.7c0.7,0.1,1.5,0.3,2.2,0.3
			c3.7-0.1,6.7-1.3,6.7-6.2c0-4.1-0.2-8.2-0.5-12.3c-1.5-22.1-2.1-44.3-1.2-66.4c0.6-14.1,2-28.1,5.2-41.9
			c4.4-19.2,12.4-36.7,24.3-52.4c22-29.1,51-47.5,85.8-57.3c19-5.4,38.4-7.1,58.1-6.5c20.8,0.7,41,4.5,60.4,12
			c18.4,7.2,35.2,17.1,49.7,30.5c18.3,17,32.4,36.9,40,60.9c3.4,10.9,5.6,22,7,33.3C666.4,350.2,666.4,367.8,666.3,385.4z"/>
	</g>
</g>
<g>
	<g>
		<path class="st4" d="M379.7,763.5c244.7,0,378.5-202.7,378.5-378.5c0-5.8-0.1-11.5-0.4-17.2c26-18.8,48.6-42.2,66.4-68.9
			c-23.8,10.6-49.5,17.7-76.4,20.9c27.5-16.5,48.6-42.5,58.5-73.6c-25.7,15.2-54.2,26.3-84.5,32.3c-24.3-25.9-58.8-42-97.1-42
			c-73.5,0-133,59.6-133,133c0,10.4,1.2,20.6,3.5,30.3c-110.6-5.6-208.6-58.5-274.2-139c-11.4,19.7-18,42.5-18,66.9
			c0,46.2,23.5,86.9,59.2,110.7c-21.8-0.7-42.3-6.7-60.2-16.6c0,0.6,0,1.1,0,1.7c0,64.4,45.9,118.2,106.7,130.4
			c-11.2,3-22.9,4.7-35.1,4.7c-8.6,0-16.9-0.8-25-2.4c16.9,52.8,66,91.3,124.3,92.4c-45.5,35.7-102.9,56.9-165.2,56.9
			c-10.7,0-21.3-0.6-31.7-1.8C234.7,741.4,304.6,763.5,379.7,763.5"/>
	</g>
</g>
</svg>
